<svg width="103" height="104" xmlns="http://www.w3.org/2000/svg" xmlns:xlink="http://www.w3.org/1999/xlink" xml:space="preserve" overflow="hidden"><g transform="translate(-1190 -17)"><g><g><g><g><path d="M42.8568 46.1663C42.9929 45.32 42.695 44.8173 41.812 44.5931 41.1713 44.4306 40.5838 44.0667 40.049 43.6584 39.8866 43.5344 39.6937 43.4055 39.6645 43.1099 40.3567 42.9739 41.0047 43.3522 41.794 43.2629 40.6973 42.7974 39.686 42.3939 38.6964 41.943 35.7973 40.6224 33.0587 39.0512 30.8288 36.7231 29.5259 35.3628 28.5245 33.8211 28.2448 31.9182 27.9875 30.1676 28.2179 28.471 29.0013 26.8671 29.0433 26.781 29.0902 26.6928 29.268 26.6665 29.3676 27.0618 29.2773 27.4657 29.2859 27.8613 29.3341 30.0651 30.2562 31.9075 31.7582 33.4381 34.4538 36.185 37.8331 37.5589 41.5898 38.1056 41.7064 38.1226 41.8233 38.1669 41.9384 38.1615 42.7495 38.1234 43.0468 38.5767 43.3112 39.3001 44.2132 41.7691 46.1401 43.1317 48.5725 43.8777 48.8534 43.9639 49.1419 44.0246 49.4256 44.1022 49.4792 44.1169 49.5263 44.1558 49.647 44.2225 47.4865 45.9469 46.6994 48.1694 47.1366 50.8301 47.2157 48.5269 48.3247 46.9547 50.4732 46.1556 50.562 45.9544 50.4474 45.8196 50.4126 45.6712 50.2404 44.9395 50.4679 44.3136 51.1116 43.958 51.4398 43.7766 51.5204 43.6067 51.3803 43.2636 51.1874 42.7915 51.0303 42.304 50.8725 41.8185 50.753 41.451 50.5916 41.3706 50.227 41.5824 48.5452 42.5587 46.6571 41.6199 46.3903 39.6975 46.3135 39.1444 46.6354 38.6847 46.7614 38.1573 44.0845 37.3855 42.9297 35.3423 42.3765 32.8747 41.9948 31.1721 42.387 29.5786 43.4325 28.1717 43.6329 28.2299 43.5889 28.3385 43.5631 28.4253 42.9222 30.5728 43.7521 32.2163 45.3365 33.5992 45.4991 33.7411 45.6883 33.852 45.8532 33.9914 46.3421 34.4043 46.8662 34.5045 47.4973 34.3262 50.4244 33.4993 53.358 33.5537 56.2816 34.3548 56.816 34.5013 57.2788 34.4278 57.7375 34.128 59.1827 33.1833 60.2061 31.9529 60.4716 30.1915 60.5732 29.5174 60.3402 28.8812 60.2087 28.2029 60.8977 28.5848 61.6573 30.4367 61.529 31.6412 61.2118 34.6197 60.2149 37.1622 56.9645 38.1395 57.0878 38.6395 57.3241 39.0864 57.3096 39.6174 57.2612 41.381 55.3042 42.5602 53.7319 41.7413 53.0196 41.3702 52.9937 41.3807 52.7294 42.1665 52.6667 42.3527 52.6275 42.549 52.5466 42.7265 52.2829 43.3061 52.1244 43.7562 52.8717 44.2149 53.5148 44.6095 53.3946 45.3775 53.12 46.0868 55.5745 47.0833 56.8162 48.8738 56.4056 51.5315 56.1179 53.3939 54.8965 54.59 53.0895 55.0572 50.8261 55.6425 49.0443 54.8393 47.6531 52.7691 47.7936 53.4118 47.9729 53.847 48.1867 54.2733 49.013 55.9202 50.0383 57.4216 51.34 58.7361 51.7121 59.1117 51.9833 59.1508 52.3625 58.7645 54.6696 56.4134 56.3015 53.7002 56.7043 50.3834 56.9793 48.1193 56.2869 46.1513 54.5529 44.602 54.424 44.4866 54.2662 44.3907 54.21 44.1842 54.4078 43.9182 54.736 43.9655 55.0033 43.8991 57.7759 43.2092 59.7916 41.6784 60.641 38.8514 60.7737 38.4096 61.0145 38.2475 61.4766 38.1938 65.0879 37.7733 68.4092 36.6018 71.1952 34.1938 73.1996 32.4615 74.4135 30.3013 74.4504 27.5821 74.4524 27.4257 74.4264 27.2691 74.4157 27.1123 74.4058 26.9658 74.3046 26.8102 74.4826 26.648 74.9138 26.9478 75.0626 27.4322 75.1847 27.8811 75.952 30.6993 75.5592 33.34 73.824 35.7196 72.0956 38.0902 69.6711 39.5943 67.1298 40.9238 65.684 41.6802 64.1827 42.3247 62.6612 42.9186 62.3734 43.031 62.0966 43.1721 61.737 43.3352 62.5776 43.394 63.2839 43.008 64.0501 43.0843 64.0327 43.4542 63.7617 43.5515 63.5696 43.6939 62.9484 44.1544 62.2508 44.4849 61.5257 44.7347 60.9186 44.9439 60.8032 45.3149 60.993 45.8935 63.043 44.9947 64.8832 43.8228 66.4238 42.2128 66.8004 41.8192 67.2311 41.5208 67.7304 41.3265 70.2975 40.327 72.4739 38.8072 74.1183 36.5697 74.1856 36.4782 74.2553 36.3741 74.4628 36.357 74.4908 37.1463 74.2935 37.8876 74.0271 38.6046 73.0832 41.1454 71.2952 42.9834 69.0588 44.4145 67.1856 45.6131 65.152 46.4238 62.9366 46.7344 62.5092 46.7944 62.0794 46.8388 61.6499 46.881 61.326 46.9129 61.0119 46.9044 60.8778 46.3821 60.6651 47.9425 60.1711 49.2246 59.2665 50.4391 58.9603 49.8341 59.0594 49.2661 58.8587 48.5972 58.642 51.5115 58.284 54.2385 57.2732 56.8148 56.8446 57.9074 56.7316 58.9978 56.6965 60.1371 56.6717 60.9443 56.3708 61.4478 55.8444 61.7954 55.7112 61.4707 55.8862 61.1366 55.7805 60.766 55.6104 61.6819 55.3367 62.4843 54.5843 63.0407 54.3909 63.1837 54.3756 63.4654 54.3607 63.6956 54.3345 64.099 54.1531 64.4105 53.8667 64.6674 53.1883 65.276 52.3363 65.7499 52.2924 66.8582 51.831 65.9027 52.102 65.0563 52.4886 64.2406 52.8607 63.4556 53.4075 62.7759 53.9164 62.076 54.2046 61.6798 54.3753 61.257 54.2281 60.6421 53.2886 61.6455 52.5204 62.6778 51.8322 63.9342 51.1369 62.7548 50.5091 61.6761 49.5934 60.8267 49.3039 61.0111 49.4083 61.2035 49.4567 61.3872 49.6115 61.9752 49.9943 62.4281 50.3423 62.9048 50.9449 63.7303 51.575 64.5429 51.6892 65.6156 51.7312 66.0102 51.7059 66.3839 51.5585 66.755 51.4794 66.7261 51.4165 66.7187 51.4126 66.6995 51.2395 65.8319 50.6632 65.2608 50.0031 64.7413 49.6708 64.4798 49.4457 64.1462 49.3965 63.7008 49.3591 63.364 49.2109 63.0757 48.9399 62.8387 48.5217 62.4726 48.2486 61.9955 48.0507 61.4701 47.9043 61.5596 48.0176 61.7634 47.8317 61.8162 47.4607 61.69 47.3464 61.3382 47.2208 61.0152 47.1222 60.7617 47.0063 60.4782 47.0296 60.2197 47.1954 58.37 46.3722 56.734 45.9406 55.0149 45.4186 52.9353 45.0095 50.8393 44.9297 48.5762 44.7141 49.2014 44.7153 49.762 44.5866 50.4326 43.5167 49.1537 43.1055 47.7369 42.8709 46.2001 42.8539 46.1613 42.8568 46.1663 42.8568 46.1663M50.8975 54.4621C51.2818 54.6042 51.5748 54.4388 51.8505 54.1178 52.1699 54.6583 52.6077 54.5587 53.0492 54.402 54.2858 53.9631 55.1607 53.1511 55.6082 51.9023 55.7769 51.4315 55.9383 50.9633 55.4016 50.5992 55.6182 50.3561 55.8458 50.201 55.749 49.8226 55.3734 48.354 54.5097 47.3589 53.0683 46.869 52.6111 46.7135 52.169 46.5988 51.7754 47.1542 51.5938 46.639 51.2502 46.7168 50.9171 46.797 49.6986 47.0905 48.7856 47.797 48.2538 48.9255 48.0014 49.4613 47.6468 50.0564 48.2704 50.6532 47.799 50.8893 47.874 51.2479 47.9838 51.6185 48.414 53.0709 49.3456 54.0181 50.8975 54.4621M58.3258 35.6289C57.8301 35.9295 57.2802 36.0747 56.7172 36.1687 55.4246 36.3846 54.1792 36.71 53.1559 37.5962 53.0858 37.657 52.998 37.7237 52.8935 37.6192 52.796 37.2134 53.2963 36.9661 53.2165 36.5102 52.7229 36.7038 52.5045 37.124 52.2652 37.4813 51.9619 37.9344 51.7394 37.8478 51.4625 37.4957 51.2578 37.2355 51.097 36.9192 50.7261 36.8215 50.6611 37.0419 50.789 37.1661 50.8318 37.3118 50.8755 37.4606 50.9617 37.6029 50.7655 37.8667 49.3503 36.2087 47.1726 36.455 45.3128 35.6406 46.0588 36.3835 46.9564 36.6888 47.8397 36.9958 49.2699 37.4928 50.5259 38.2063 51.3157 39.5583 51.5114 39.8931 51.6796 40.244 51.8958 40.6544 52.0349 40.3879 52.1429 40.1861 52.2461 39.982 52.6974 39.0887 53.3081 38.348 54.1646 37.7984 54.8549 37.3556 55.62 37.1137 56.3765 36.8451 57.1638 36.5656 57.8928 36.2034 58.4815 35.5963 58.4608 35.5837 58.4409 35.5644 58.4188 35.561 58.4041 35.5588 58.3859 35.5797 58.3258 35.6289M49.9626 39.9147C49.8936 39.9521 49.8256 39.9919 49.7551 40.0266 48.5918 40.5993 47.8497 40.1724 47.7824 38.8869 47.7726 38.7012 47.7814 38.5245 47.535 38.4918 47.3333 38.5637 47.3275 38.7632 47.2707 38.9219 47.0046 39.6636 47.2457 40.4753 47.8365 40.8568 48.5558 41.3211 49.5775 41.2471 50.1364 40.6901 50.4915 40.3363 50.4581 40.0623 49.9626 39.9147M55.7217 40.929C56.6335 40.4633 56.9023 39.109 56.1739 38.4646 55.9268 38.6994 55.9268 38.6994 55.9391 38.9189 55.9967 39.9482 55.1625 40.5419 54.1951 40.1663 53.9808 40.0832 53.8135 39.8885 53.5631 39.8922 53.1898 40.1901 53.2874 40.4574 53.6002 40.712 54.2268 41.2224 54.9112 41.2791 55.7217 40.929M51.5252 44.5757C51.2016 44.7519 51.0365 45.0193 51.1042 45.3887 51.1632 45.71 51.394 45.8957 51.6945 45.9722 52.0145 46.0536 52.2661 45.897 52.4626 45.6606 52.658 45.4253 52.6586 45.1598 52.5161 44.8962 52.3154 44.5251 51.9854 44.4771 51.5252 44.5757Z" fill="#00000" fill-rule="nonzero" fill-opacity="1" transform="matrix(1 0 0 1.0098 1191 18)"/><path d="M42.8522 46.1589C42.9549 46.6927 42.68 46.8947 42.1952 46.8503 37.3783 46.4092 33.347 44.5289 30.5961 40.396 29.7841 39.1761 29.3566 37.7918 29.2647 36.3264 29.4146 36.2498 29.4848 36.3355 29.5341 36.4094 30.7681 38.2612 32.4798 39.5688 34.4464 40.5163 36.1637 41.344 37.655 42.4482 39.0607 43.7104 40.0022 44.5559 41.1296 45.1272 42.2641 45.6726 42.4783 45.7756 42.6915 45.8754 42.8319 46.1337 42.8568 46.1663 42.8539 46.1613 42.8522 46.1589Z" fill="#00000" fill-rule="nonzero" fill-opacity="1" transform="matrix(1 0 0 1.0098 1191 18)"/><path d="M62.2856 70.7747C62.5838 71.4816 62.8646 72.1468 63.1535 72.8314 63.4601 72.6569 63.4872 72.3836 63.5755 72.16 63.9513 71.2093 64.3334 70.2598 64.663 69.2928 64.8316 68.7979 65.1013 68.6111 65.6163 68.6599 66.0648 68.7024 66.5209 68.6583 66.9729 68.6727 67.1911 68.6796 67.5035 68.5788 67.5589 68.9076 67.6154 69.2412 67.7304 69.6665 67.3699 69.8709 67.0527 70.051 67.0534 70.2852 67.0525 70.5577 67.0499 71.2856 67.0448 72.0138 67.0583 72.7415 67.0662 73.1685 66.9369 73.6138 67.4925 73.9005 67.7367 74.0266 67.6673 74.4789 67.5697 74.7878 67.4802 75.0712 67.222 74.9953 67.019 75.001 66.6061 75.0129 66.1923 75.0144 65.7796 75.0012 65.5588 74.9941 65.2427 75.0898 65.1845 74.7756 65.1237 74.4467 64.9908 74.0464 65.3403 73.7979 65.5304 73.6628 65.5986 73.5296 65.5978 73.3185 65.5945 72.5326 65.5965 71.7466 65.5965 70.8862 65.2196 71.2151 65.1504 71.6316 64.995 71.99 64.6667 72.7474 64.3607 73.5153 64.0754 74.2899 63.9193 74.7137 63.7361 74.9816 63.2067 74.9862 62.6562 74.991 62.4568 74.7167 62.2837 74.2723 61.9271 73.3565 61.5302 72.4564 61.149 71.5502 61.0823 71.3916 61.0515 71.2078 60.7641 71.0757 60.6966 71.9264 60.6468 72.7456 60.7951 73.5333 60.85 73.8251 61.2582 74.0372 61.209 74.4751 61.169 74.8301 61.0967 75.0262 60.6977 75.0086 60.2264 74.9877 59.7536 75.0042 59.2814 75.0019 59.0385 75.0008 58.7638 74.9989 58.7749 74.6646 58.7851 74.3602 58.5722 73.9486 59.0138 73.7927 59.3098 73.6884 59.3442 73.508 59.3432 73.2554 59.3396 72.311 59.343 71.3666 59.3429 70.4223 59.3429 70.2046 59.3629 69.9778 59.0711 69.9103 58.8057 69.8489 58.7714 69.6416 58.7552 69.4111 58.7086 68.7417 58.7658 68.6743 59.4532 68.6696 59.9452 68.6662 60.4381 68.689 60.9286 68.6625 61.308 68.6421 61.5084 68.8097 61.6348 69.1444 61.8363 69.6776 62.0561 70.2037 62.2856 70.7747Z" fill="#00000" fill-rule="nonzero" fill-opacity="1" transform="matrix(1 0 0 1.0098 1191 18)"/><path d="M24.1773 70.2011C23.8125 69.8729 23.4327 69.6276 23.5644 69.0551 23.6236 68.7971 23.705 68.6706 23.9707 68.672 25.0905 68.6775 26.2127 68.633 27.3288 68.6976 28.0526 68.7395 28.6534 69.1275 28.9074 69.8472 29.2082 70.6993 28.9699 71.4293 28.2159 72.002 28.4574 72.4359 28.658 72.8758 28.754 73.3555 28.7822 73.4963 28.8743 73.6114 29.0201 73.6448 29.4078 73.7338 29.3908 74.0325 29.4159 74.3345 29.4583 74.8445 29.2552 75.0222 28.738 75.0182 27.449 75.0082 27.4517 75.0293 27.2301 73.7427 27.1497 73.2763 27.0845 72.7874 26.5351 72.6121 26.2801 72.5306 25.9303 72.3821 25.8074 72.7009 25.6843 73.0204 25.5615 73.4969 25.9454 73.7161 26.439 73.9979 26.2547 74.4011 26.2162 74.746 26.1721 75.1425 25.7859 74.9904 25.5387 75.0013 25.0486 75.0228 24.5567 75.008 24.0656 75.0031 23.8466 75.0009 23.5908 75.0046 23.5948 74.6978 23.5991 74.3866 23.3926 73.9514 23.7953 73.8066 24.1749 73.67 24.2007 73.448 24.1982 73.1391 24.1904 72.1766 24.1888 71.2139 24.1773 70.2011M27.1982 71.0571C27.4585 70.7333 27.4834 70.3891 27.1537 70.1275 26.7728 69.8254 26.2622 69.7902 25.8853 70.0222 25.5817 70.2091 25.7283 70.6721 25.7676 71.0131 25.8018 71.3102 26.0668 71.273 26.2763 71.2746 26.5679 71.2769 26.8667 71.2999 27.1982 71.0571Z" fill="#00000" fill-rule="nonzero" fill-opacity="1" transform="matrix(1 0 0 1.0098 1191 18)"/><path d="M79.9372 69.9245C80.1715 70.8066 79.9148 71.4753 79.1931 72.0024 79.4477 72.4306 79.6515 72.8674 79.7538 73.3466 79.7755 73.4481 79.8679 73.5859 79.9568 73.6134 80.5714 73.8041 80.3465 74.2926 80.361 74.6959 80.3623 74.7333 80.3544 74.7861 80.3297 74.8072 79.8507 75.2159 79.285 74.936 78.7615 74.9924 78.4453 75.0265 78.3997 74.7608 78.3569 74.5188 78.2818 74.0939 78.1988 73.6704 78.1197 73.2463 78.0736 72.9988 77.9418 72.799 77.7235 72.6881 77.4256 72.5369 77.0913 72.3806 76.8016 72.6704 76.6016 72.8704 76.75 73.595 77.0135 73.7651 77.4396 74.0402 77.2482 74.4416 77.2096 74.7777 77.1728 75.0977 76.8394 74.995 76.6216 75.0009 76.1105 75.0146 75.5989 75.0046 75.0875 75.0032 74.8407 75.0025 74.5746 74.9898 74.592 74.6556 74.6078 74.3517 74.3883 73.9388 74.8404 73.7883 75.1245 73.6937 75.2053 73.5366 75.2045 73.2724 75.2013 72.1925 75.2032 71.1127 75.2032 70.0233 74.9403 69.8748 74.5694 69.916 74.5634 69.451 74.5541 68.7424 74.5779 68.6715 75.2916 68.6691 76.2161 68.6663 77.141 68.6502 78.0648 68.6756 78.9153 68.699 79.5808 69.0523 79.9372 69.9245M78.1968 70.1416C77.9203 69.8957 77.5806 69.9193 77.2471 69.921 77.0285 69.9221 76.7754 69.9087 76.7603 70.2114 76.7432 70.5518 76.5603 71.0085 76.9021 71.1968 77.2705 71.3999 77.7579 71.3665 78.1359 71.0988 78.4615 70.8684 78.4543 70.5398 78.1968 70.1416Z" fill="#00000" fill-rule="nonzero" fill-opacity="1" transform="matrix(1 0 0 1.0098 1191 18)"/><path d="M38.0981 46.7682C39.5644 47.3601 41.1123 47.4954 42.5442 48.0369 42.5985 48.0575 42.6216 48.1604 42.679 48.2589 42.1866 48.6434 41.6076 48.6356 41.0579 48.7149 39.8537 48.8887 38.6467 49.0255 37.4266 49.0356 36.8748 49.0402 36.3785 48.9038 35.9258 48.6013 34.5505 47.682 33.2358 46.686 32.1981 45.3815 31.4806 44.4794 30.9793 43.4799 31.0989 42.2222 33.016 44.3751 35.3635 45.8308 38.0981 46.7682Z" fill="#00000" fill-rule="nonzero" fill-opacity="1" transform="matrix(1 0 0 1.0098 1191 18)"/><path d="M46.5034 68.6674C47.4625 68.6747 47.4625 68.6747 47.4583 69.5987 47.4577 69.7168 47.4559 69.8347 47.4549 69.9528 47.4477 70.9081 47.3998 70.9442 46.4448 70.8791 46.167 70.8601 45.9913 70.792 46.0003 70.4752 46.0061 70.2704 45.9782 70.0465 45.7122 70.047 45.3319 70.0476 44.8976 69.8781 44.5917 70.1922 44.4163 70.3723 44.4917 70.6815 44.5432 70.9329 44.5758 71.0927 44.7151 71.1203 44.8591 71.1454 45.8295 71.3145 45.8544 71.3549 45.6509 72.3513 45.4942 72.463 45.3094 72.4276 45.1401 72.4118 44.6826 72.3694 44.4692 72.5592 44.514 73.0185 44.5376 73.2602 44.4068 73.5991 44.7047 73.7018 45.073 73.8288 45.4902 73.8319 45.8581 73.6735 46.063 73.5852 46.0098 73.3243 45.9985 73.1352 45.972 72.6945 46.2518 72.6482 46.5698 72.6882 46.8963 72.7293 47.3714 72.4774 47.4469 73.0842 47.4494 73.1037 47.4496 73.1234 47.452 73.143 47.6693 74.9317 47.6059 75.0059 45.8496 75.0054 44.8857 75.0053 43.9217 75.0097 42.9581 74.9986 42.7223 74.9957 42.3757 75.0844 42.3719 74.6966 42.3687 74.3646 42.1395 73.908 42.6912 73.7638 42.9925 73.6851 43.0316 73.461 43.0336 73.2204 43.0407 72.3551 43.0426 71.4895 43.032 70.6241 43.0284 70.3445 42.9662 70.1215 42.6266 69.9947 42.1144 69.8038 42.3744 69.321 42.3698 68.964 42.3654 68.6175 42.6811 68.6727 42.9054 68.6714 44.0856 68.6649 45.2658 68.6677 46.5034 68.6674Z" fill="#00000" fill-rule="nonzero" fill-opacity="1" transform="matrix(1 0 0 1.0098 1191 18)"/><path d="M72.2818 44.1584C71.3855 45.9209 69.8884 47.0366 68.4177 48.195 67.5175 48.904 66.5255 49.14 65.4384 49.0141 64.2321 48.8743 63.0147 48.8161 61.8223 48.5624 61.5727 48.5094 61.3164 48.478 61.1711 48.1786 61.5131 47.7665 62.0247 47.749 62.4849 47.6514 64.9631 47.1259 67.3344 46.3353 69.4747 44.9393 70.3356 44.3779 71.1232 43.7329 71.8219 42.9799 72.06 42.7234 72.2907 42.4601 72.6439 42.0673 72.7981 42.93 72.5676 43.5265 72.2818 44.1584Z" fill="#00000" fill-rule="nonzero" fill-opacity="1" transform="matrix(1 0 0 1.0098 1191 18)"/><path d="M56.0882 73.6971C56.6494 73.2679 56.6222 72.8942 56.0334 72.6501 55.6715 72.4999 55.2855 72.4084 54.9178 72.2705 53.8007 71.8516 53.2571 70.9378 53.5193 69.9388 53.7769 68.9576 54.8139 68.3826 55.9203 68.4681 56.8474 68.5397 57.44 69.1495 58.0982 69.6409 58.3799 69.8511 58.2547 70.3135 58.171 70.6515 58.0941 70.9625 57.789 70.8591 57.5678 70.871 57.2955 70.8855 57.022 70.8744 56.7107 70.8744 56.6072 70.382 56.4457 69.9669 55.9118 69.8702 55.5417 69.8033 55.2108 69.8766 55.0898 70.2493 54.9701 70.6176 55.2805 70.7709 55.5648 70.877 55.9327 71.0144 56.3103 71.1254 56.6821 71.2524 57.8126 71.6388 58.269 72.3352 58.1145 73.4328 57.9858 74.3463 57.1382 75.061 56.1144 75.1196 55.2232 75.1705 54.5205 74.8904 53.85 74.2339 53.4525 73.8448 53.2749 73.5375 53.3124 73.0277 53.3318 72.7622 53.4374 72.6245 53.7037 72.624 53.9789 72.6235 54.2546 72.6212 54.5294 72.6338 54.7481 72.6438 54.889 72.7438 54.9245 72.9865 55.0212 73.6472 55.4686 73.7866 56.0882 73.6971Z" fill="#00000" fill-rule="nonzero" fill-opacity="1" transform="matrix(1 0 0 1.0098 1191 18)"/><path d="M34.5393 71.9629C34.6897 72.4173 34.8285 72.8262 34.9601 73.2375 35.0322 73.4622 35.0736 73.7017 35.3515 73.778 35.5412 73.8299 35.5525 73.9884 35.5712 74.1508 35.6583 74.9086 35.5789 75.002 34.8173 75.0061 34.5028 75.0079 34.1868 75.0264 33.8744 75.0009 33.6245 74.9804 33.2367 75.1428 33.1763 74.7745 33.1203 74.4323 32.9216 73.9757 33.435 73.7477 33.6249 73.6632 33.6212 73.5163 33.5717 73.3538 33.5107 73.1531 33.4115 72.9963 33.1668 72.9987 32.7738 73.0024 32.3806 73.0008 31.9876 72.9995 31.5762 72.9981 31.5555 73.3189 31.4591 73.614 31.6801 73.8042 32.0524 73.7926 32.0451 74.2388 32.0334 74.9576 32.0352 75.0036 31.3036 75.0067 30.8909 75.0085 30.4782 75.0091 30.0656 75.0042 29.8315 75.0014 29.5451 75.0307 29.5245 74.701 29.5049 74.3873 29.336 73.9635 29.7187 73.8007 30.0776 73.6481 30.151 73.3771 30.2491 73.0852 30.6807 71.8015 31.1243 70.5213 31.5273 69.2285 31.6624 68.7953 31.8824 68.6487 32.3289 68.6592 33.7315 68.6919 33.3985 68.5507 33.8158 69.7357 34.0698 70.457 34.2895 71.1905 34.5393 71.9629M32.8001 71.764C33.2008 71.234 32.7133 70.8912 32.5474 70.4648 32.296 70.8561 32.1051 71.2418 32.1175 71.6858 32.322 71.8239 32.5193 71.7837 32.8001 71.764Z" fill="#00000" fill-rule="nonzero" fill-opacity="1" transform="matrix(1 0 0 1.0098 1191 18)"/><path d="M41.0698 70.8003C40.6674 72.0383 40.2673 73.2288 39.9025 74.43 39.7732 74.856 39.5568 75.0264 39.1042 75.0144 37.6417 74.9752 37.9884 75.1604 37.5594 73.8715 37.1814 72.736 36.8305 71.5915 36.4704 70.4501 36.386 70.1826 36.3001 69.9734 35.9604 69.8874 35.5128 69.7739 35.6812 69.3554 35.6825 69.0413 35.6841 68.6815 35.9289 68.6596 36.2092 68.6648 36.759 68.675 37.3092 68.6625 37.859 68.6703 38.1034 68.6737 38.4141 68.6043 38.463 68.9703 38.5061 69.2934 38.5909 69.6566 38.2326 69.8722 38.0749 69.9672 37.887 70.0265 37.9524 70.2505 38.213 71.1442 38.4871 72.034 38.7561 72.9252 38.8089 72.9255 38.8618 72.926 38.9147 72.9263 39.1866 72.0374 39.462 71.1494 39.7273 70.2583 39.7695 70.1167 39.7285 69.9748 39.5568 69.9367 38.9185 69.7953 39.1589 69.2912 39.1874 68.9338 39.2201 68.5232 39.6121 68.6865 39.8544 68.6755 40.3835 68.6513 40.9146 68.6657 41.4449 68.672 41.6612 68.6746 41.918 68.6668 41.9215 68.9737 41.9249 69.272 42.1035 69.7201 41.7631 69.8283 41.2503 69.9914 41.2085 70.3756 41.0698 70.8003Z" fill="#00000" fill-rule="nonzero" fill-opacity="1" transform="matrix(1 0 0 1.0098 1191 18)"/><path d="M59.6903 51.6812C60.1085 52.8077 60.5325 53.8828 61.1628 54.8656 61.8508 55.9383 62.7974 56.6497 64.0274 56.9828 64.1225 57.0086 64.2202 57.024 64.3234 57.2371 62.53 58.4902 60.5085 59.1111 58.3139 59.4642 58.2812 58.7786 58.6198 58.2878 58.7457 57.7455 59.1156 56.1522 59.0065 54.5444 58.9486 52.938 58.9311 52.4557 58.9573 51.9925 59.1942 51.5695 59.3922 51.2163 59.5675 51.2594 59.6903 51.6812Z" fill="#00000" fill-rule="nonzero" fill-opacity="1" transform="matrix(1 0 0 1.0098 1191 18)"/><path d="M70.0557 73.3146C70.0012 73.5283 69.924 73.719 70.2059 73.7559 70.5012 73.7948 70.5073 74.0071 70.5191 74.234 70.5573 74.9653 70.527 75.0025 69.7959 75.0054 69.4026 75.0071 69.0091 75.0127 68.6162 74.9997 68.4145 74.9931 68.1248 75.0626 68.1054 74.7509 68.0859 74.4359 67.9063 74.0089 68.2546 73.8299 68.6174 73.6435 68.6853 73.3469 68.7887 73.0403 69.2094 71.7936 69.6381 70.5492 70.0278 69.2926 70.1732 68.8243 70.4023 68.6388 70.9077 68.6574 72.1746 68.7042 71.9223 68.5435 72.3065 69.6928 72.6676 70.7729 73.0034 71.8616 73.3724 72.939 73.4871 73.2743 73.5393 73.6282 73.9486 73.8399 74.2692 74.0058 74.1633 74.4406 74.1005 74.7649 74.0437 75.0582 73.7776 74.9992 73.5701 75.0031 73.177 75.0107 72.782 75.0287 72.3911 74.9983 72.1153 74.9768 71.6842 75.1716 71.6469 74.6758 71.6166 74.2749 71.4131 73.7338 72.1744 73.7153 72.0962 73.3969 72.1164 73.011 71.7725 73.0296 71.2031 73.0603 70.56 72.7006 70.0557 73.3146M71.4856 71.4052C71.3381 71.0677 71.3527 70.6537 70.9775 70.3196 70.8434 70.8512 70.6083 71.2759 70.5805 71.7653 71.3221 71.9157 71.3549 71.9055 71.4856 71.4052Z" fill="#00000" fill-rule="nonzero" fill-opacity="1" transform="matrix(1 0 0 1.0098 1191 18)"/><path d="M44.7793 56.178C44.7458 57.3481 45.1915 58.3637 45.5364 59.5521 43.3009 59.0405 41.1996 58.5924 39.2551 57.0835 42.5031 56.4159 43.3429 53.8376 44.2665 51.2692 44.8321 51.6783 44.8376 52.1879 44.8176 52.6492 44.7669 53.807 44.7758 54.9638 44.7793 56.178Z" fill="#00000" fill-rule="nonzero" fill-opacity="1" transform="matrix(1 0 0 1.0098 1191 18)"/><path d="M64.8131 52.6425C66.0664 53.1193 67.311 53.053 68.5896 52.8617 68.6102 53.2166 68.3583 53.3448 68.1814 53.4923 66.7863 54.6555 65.1411 55.3391 63.4513 55.9374 63.1554 56.0421 62.955 55.944 62.7947 55.7104 61.7797 54.2319 60.9018 52.6843 60.3958 50.9488 60.3315 50.7279 60.3029 50.512 60.503 50.3568 60.7281 50.1825 60.9092 50.3493 61.0771 50.482 62.2051 51.3741 63.378 52.1878 64.8131 52.6425Z" fill="#00000" fill-rule="nonzero" fill-opacity="1" transform="matrix(1 0 0 1.0098 1191 18)"/><path d="M41.0079 55.6624C40.7642 55.8765 40.5536 56.0521 40.2401 55.9188 38.6877 55.2589 37.0771 54.7113 35.7577 53.6025 35.5525 53.4302 35.312 53.2801 35.2196 52.9532 35.4945 52.8027 35.7606 52.9555 36.0068 52.9857 38.3703 53.2767 40.2918 52.2855 42.0964 50.9307 42.3306 50.7548 42.5879 50.6083 42.8412 50.4597 42.982 50.3769 43.1396 50.3484 43.2858 50.4549 43.4558 50.5789 43.4599 50.7451 43.3975 50.9294 42.829 52.606 42.221 54.2626 41.0079 55.6624Z" fill="#00000" fill-rule="nonzero" fill-opacity="1" transform="matrix(1 0 0 1.0098 1191 18)"/><path d="M17.3136 69.9962C17.3133 68.6659 17.3133 68.6663 18.5972 68.667 19.9127 68.6678 21.2285 68.6872 22.5433 68.6578 23.0029 68.6475 23.1351 68.8455 23.1204 69.2421 23.1132 69.438 23.0975 69.6337 23.0822 69.8292 23.0162 70.6771 23.016 70.6672 22.1511 70.6496 21.8363 70.6431 21.6133 70.5851 21.5883 70.217 21.5717 69.9695 21.4074 69.8839 21.1772 69.9159 20.9444 69.9482 20.9186 70.129 20.9184 70.3123 20.9171 71.3332 20.9194 72.3541 20.9212 73.3749 20.9216 73.5712 20.9847 73.7271 21.2061 73.7525 21.4575 73.7813 21.5061 73.943 21.526 74.1627 21.5947 74.9232 21.5281 75.0048 20.7549 75.008 20.2444 75.01 19.7338 75.009 19.2235 75.0031 19.0054 75.0006 18.7491 75.0047 18.7565 74.6954 18.764 74.3842 18.5588 73.9502 18.9641 73.8057 19.3438 73.6703 19.3708 73.442 19.3703 73.1362 19.369 72.2331 19.3733 71.3299 19.3664 70.4269 19.3648 70.218 19.3926 69.9591 19.0869 69.9277 18.8099 69.8992 18.813 70.1348 18.7506 70.3198 18.5511 70.9116 18.0551 70.5836 17.6929 70.6258 17.2737 70.6746 17.3244 70.3239 17.3136 69.9962Z" fill="#00000" fill-rule="nonzero" fill-opacity="1" transform="matrix(1 0 0 1.0098 1191 18)"/><path d="M84.6873 73.8907C84.7387 74.1238 84.7667 74.3173 84.7782 74.5117 84.7981 74.8504 84.6529 75.017 84.292 75.0081 83.6826 74.9931 83.0724 75.0086 82.4626 75.0019 82.2763 74.9997 81.9995 75.0482 82.0063 74.77 82.0145 74.4415 81.8138 73.9741 82.2125 73.8164 82.589 73.6675 82.6072 73.4538 82.6055 73.1464 82.6001 72.2218 82.5952 71.2969 82.609 70.3726 82.6149 69.9748 82.4406 69.8456 82.066 69.9057 81.8757 70.1526 82.1029 70.6434 81.5171 70.6568 80.5377 70.6793 80.4919 70.6758 80.4912 69.6767 80.4912 69.5391 80.5036 69.4 80.4891 69.2639 80.4387 68.7907 80.6635 68.6554 81.1117 68.661 82.646 68.6798 84.1808 68.68 85.7151 68.6608 86.1683 68.6551 86.3815 68.8036 86.3353 69.2697 86.3217 69.406 86.3354 69.5449 86.3351 69.6826 86.3325 70.6926 86.3079 70.71 85.3068 70.6444 85.0415 70.6271 84.8384 70.5829 84.8433 70.2572 84.8484 69.93 84.6239 69.8712 84.3666 69.8781 84.0739 69.8861 84.0983 70.1143 84.0977 70.3085 84.0946 71.2921 84.1232 72.2768 84.084 73.2589 84.0657 73.7192 84.3809 73.738 84.6873 73.8907Z" fill="#00000" fill-rule="nonzero" fill-opacity="1" transform="matrix(1 0 0 1.0098 1191 18)"/><path d="M41.2401 49.2465C41.7006 49.1864 42.1092 49.1328 42.519 49.0923 42.6921 49.0752 42.8905 49.0464 42.9818 49.2515 43.0715 49.4531 43.0098 49.6409 42.8531 49.7861 42.681 49.9455 42.5094 50.1119 42.3139 50.2385 41.0577 51.0527 39.7089 51.6825 38.3221 52.239 37.9827 52.3752 37.6904 52.3633 37.3708 52.1874 36.1304 51.5047 34.9023 50.8086 33.9466 49.7302 33.5559 49.2893 33.2155 48.8246 33.1658 48.2066 33.3878 48.1281 33.4832 48.2808 33.5929 48.3748 34.4804 49.134 35.5341 49.4665 36.6729 49.5435 38.1885 49.646 39.6905 49.4687 41.2401 49.2465Z" fill="#00000" fill-rule="nonzero" fill-opacity="1" transform="matrix(1 0 0 1.0098 1191 18)"/><path d="M66.8388 51.9861C66.2259 52.4105 65.6612 52.3705 65.0248 52.093 63.6514 51.4942 62.3221 50.8301 61.1248 49.921 60.9234 49.7681 60.6473 49.6398 60.7659 49.3248 60.8973 48.9761 61.2164 49.0675 61.4798 49.1099 63.1857 49.3845 64.8902 49.6386 66.6292 49.5649 67.942 49.5092 69.1431 49.1681 70.1967 48.3632 70.2702 48.307 70.3592 48.2709 70.4511 48.2199 70.548 48.7751 70.2022 49.39 69.5227 49.9942 68.6971 50.728 67.7903 51.3492 66.8388 51.9861Z" fill="#00000" fill-rule="nonzero" fill-opacity="1" transform="matrix(1 0 0 1.0098 1191 18)"/><path d="M48.4357 68.6727C49.0805 68.6696 49.6696 68.6629 50.2585 68.6721 50.4804 68.6756 50.7947 68.6133 50.7843 68.9692 50.775 69.2878 51.0104 69.7222 50.5367 69.8881 50.2447 69.9903 50.1963 70.1634 50.1972 70.418 50.2005 71.3603 50.2127 72.3031 50.1923 73.2452 50.1827 73.6811 50.3934 73.8063 50.7705 73.7585 51.1347 73.7122 51.6481 73.9597 51.6932 73.2686 51.7316 72.6789 52.5252 72.3257 53.0036 72.6645 53.2196 72.8173 53.2557 74.7902 53.0254 74.926 52.9015 74.9989 52.7244 75.0012 52.5713 75.0018 51.2558 75.0066 49.9403 75.007 48.6248 75.0007 48.3808 74.9995 48.0497 75.0583 48.0494 74.6791 48.0492 74.346 47.836 73.8831 48.3996 73.7674 48.6869 73.7082 48.7167 73.5243 48.7162 73.2923 48.7141 72.3302 48.712 71.3681 48.7172 70.406 48.7187 70.1402 48.659 69.947 48.3519 69.9051 48.078 69.8676 48.0065 69.6588 48.0353 69.4255 48.0699 69.1442 47.8992 68.7554 48.4357 68.6727Z" fill="#00000" fill-rule="nonzero" fill-opacity="1" transform="matrix(1 0 0 1.0098 1191 18)"/><path d="M52.8812 49.7092C53.4323 50.045 53.9532 50.351 54.6497 50.7603 53.25 51.2197 52.3336 52.0356 51.8577 53.3802 51.2864 52.1254 50.5526 51.1266 49.1209 50.7177 50.4402 50.1925 51.3496 49.3552 51.771 47.9716 52.3115 48.5583 52.4614 49.1948 52.8812 49.7092Z" fill="#00000" fill-rule="nonzero" fill-opacity="1" transform="matrix(1 0 0 1.0098 1191 18)"/><path d="M52.9779 49.1298C53.2187 48.9193 53.4583 48.7729 53.7946 48.7636 53.814 49.1564 53.6737 49.4683 53.3504 49.5758 53.1303 49.6489 53.0005 49.3954 52.9779 49.1298Z" fill="#00000" fill-rule="nonzero" fill-opacity="1" transform="matrix(1 0 0 1.0098 1191 18)"/><path d="M53.3923 51.889C53.5264 52.1067 53.737 52.2637 53.6306 52.5649 53.3243 52.5804 53.0898 52.4312 53.0156 52.1639 52.9608 51.967 53.1028 51.7942 53.3923 51.889Z" fill="#00000" fill-rule="nonzero" fill-opacity="1" transform="matrix(1 0 0 1.0098 1191 18)"/></g></g></g></g></g></svg>